# xmcd CD database file
#
# Track frame offsets:
#	150
#	17062
#	43455
#	63284
#	78246
#	96974
#	118747
#	137459
#	157410
#	184531
#	214809
#
# Disc length: 3054 seconds
#
# Revision: 0
# Processed by: cddbd v1.5.2PL0 Copyright (c) Steve Scherf et al.
# Submitted via: CDex 1.70beta2
#
DISCID=990bec0b
DTITLE=Loose Marbles - Miss Mush and Her Fully Dressed Po' Boys
DYEAR=2007
DGENRE=Jazz
TTITLE0=Milenburg Joys
TTITLE1=When I Get Low I Get High
TTITLE2=Electric Chair Blues
TTITLE3=Four or Five Times
TTITLE4=Tell Me Your Dreams
TTITLE5=Some of These Days
TTITLE6=Trouble in Mind
TTITLE7=I Get the Blues When It Rains
TTITLE8=What Am I Living For
TTITLE9=Tishimingo Blues
TTITLE10=My Life Will Be Sweeter
EXTD=YEAR: 2007
EXTT0=
EXTT1=
EXTT2=
EXTT3=
EXTT4=
EXTT5=
EXTT6=
EXTT7=
EXTT8=
EXTT9=
EXTT10=
PLAYORDER=
